<?xml version="1.0" encoding="iso-8859-1"?>
<!-- Generator: Adobe Illustrator 19.0.0, SVG Export Plug-In . SVG Version: 6.00 Build 0)  -->
<svg version="1.1" id="Layer_1" xmlns="http://www.w3.org/2000/svg" xmlns:xlink="http://www.w3.org/1999/xlink" x="0px" y="0px"
	 viewBox="0 0 495.8 495.8" style="enable-background:new 0 0 495.8 495.8;" xml:space="preserve">
<path style="fill:#7748A8;" d="M495.792,435.98c0,28.552-111,51.696-247.888,51.696C110.984,487.676,0,464.532,0,435.98
	c0-28.56,110.984-8.904,247.904-8.904C384.792,427.068,495.792,407.412,495.792,435.98z"/>
<path style="fill:#4D2F7C;" d="M247.904,427.068c136.888,0,247.888-19.656,247.888,8.904c0,28.552-111,51.696-247.888,51.696"/>
<path style="fill:#9471CC;" d="M247.904,434.396c130.752,0,237.808-17.896,247.16,5.384c0.44-1.256,0.736-2.52,0.736-3.808
	c0-28.56-111-8.904-247.888-8.904c-136.92,0-247.904-19.656-247.904,8.904c0,1.28,0.296,2.544,0.736,3.808
	C10.08,416.5,117.12,434.396,247.904,434.396z"/>
<path style="fill:#4D2F7C;" d="M495.792,435.98c0,28.552-111,51.696-247.888,51.696C110.984,487.676,0,464.532,0,435.98
	c0-28.56,110.984,40.184,247.904,40.184C384.792,476.164,495.792,407.412,495.792,435.98z"/>
<path style="fill:#351B68;" d="M247.904,476.164c136.888,0,247.888-68.752,247.888-40.184c0,28.552-111,51.696-247.888,51.696"/>
<path style="fill:#4D2F7C;" d="M391.312,26.572c0-4.944-4-10.672-8.952-10.672H113.432c-4.952,0-8.968,5.728-8.968,10.672
	l26.888,407.248c0,2.096,0.832,4.368,2.048,5.896c1.768,12.216,52.28,22.232,114.488,22.232s112.736-9.688,114.496-21.904
	c1.208-1.528,2.048-4.176,2.048-6.272L391.312,26.572z"/>
<path style="fill:#351B68;" d="M247.888,462.164c62.2,0,112.736-9.8,114.496-22.016c1.208-1.528,2.048-3.376,2.048-5.472
	l26.872-408.104c0-4.944-4-10.672-8.952-10.672h-268.92c-4.952,0-8.968,5.728-8.968,10.672"/>
<path style="fill:#7748A8;" d="M384.048,18.068c0,7.424-60.952,16.944-136.16,16.944c-75.184,0-137.216-9.776-137.216-17.2
	s62.032-9.688,137.216-9.688C323.088,8.124,384.048,10.652,384.048,18.068z"/>
<path style="fill:#693FA0;" d="M247.888,8.124c75.2,0,136.16,2.52,136.16,9.944s-60.96,16.952-136.16,16.952"/>
<path style="fill:#351B68;" d="M117.464,224.684l4.448,67.248c36.512,4.544,79.688,28.224,125.984,28.224
	s89.464-23.68,125.976-28.224l4.456-67.248c-37.44,4.928-82.216-6.52-130.432-6.52S154.904,229.612,117.464,224.684z"/>
<g>
	<path style="fill:#EF7100;" d="M117.464,224.684l4.448,67.248c36.512,4.544,79.688,14.896,125.984,14.896
		s89.464-10.352,125.976-14.896l4.456-67.248c-37.44,4.928-82.216,7.488-130.432,7.488S154.904,229.612,117.464,224.684z"/>
	<path style="fill:#EF7100;" d="M117.464,224.684l4.448,35.048c36.512,2.376,79.688,7.768,125.984,7.768s89.464-5.392,125.976-7.768
		l4.456-35.048c-37.44,2.568-82.216,3.896-130.432,3.896S154.904,227.252,117.464,224.684z"/>
</g>
<path style="fill:#CC5C09;" d="M247.896,306.828c46.296,0,89.464-10.352,125.976-14.896l4.456-67.248
	c-37.44,4.928-82.216,7.488-130.432,7.488s-92.992-2.552-130.432-7.488"/>
<path style="fill:#B74E06;" d="M247.896,306.828c46.296,0,89.464-10.352,125.976-14.896l4.456-67.248
	c-37.44,4.928-82.216,7.488-130.432,7.488"/>
<g>
</g>
<g>
</g>
<g>
</g>
<g>
</g>
<g>
</g>
<g>
</g>
<g>
</g>
<g>
</g>
<g>
</g>
<g>
</g>
<g>
</g>
<g>
</g>
<g>
</g>
<g>
</g>
<g>
</g>
</svg>
