<?xml version="1.0" encoding="iso-8859-1"?>
<!-- Generator: Adobe Illustrator 18.0.0, SVG Export Plug-In . SVG Version: 6.00 Build 0)  -->
<!DOCTYPE svg PUBLIC "-//W3C//DTD SVG 1.1//EN" "http://www.w3.org/Graphics/SVG/1.1/DTD/svg11.dtd">
<svg version="1.1" id="Capa_1" xmlns="http://www.w3.org/2000/svg" xmlns:xlink="http://www.w3.org/1999/xlink" x="0px" y="0px"
	 viewBox="0 0 297 297" style="enable-background:new 0 0 297 297;" xml:space="preserve">
<path d="M224.785,168.86c-10.466-37.045-20.985-98.88,9.053-138.938c3.503-4.67,3.429-11.11-0.178-15.699
	c-3.608-4.59-9.847-6.181-15.212-3.881c-1.27,0.543-31.442,13.653-65.922,43.761c-26.686,23.302-60.325,60.985-81.124,114.954
	C25.934,180.129,0,200.015,0,224.085c0,13.693,8.358,33.134,48.173,47.99c27.003,10.077,62.634,15.626,100.327,15.626
	s73.324-5.549,100.327-15.626C288.642,257.219,297,237.778,297,224.085C297,199.825,270.779,179.885,224.785,168.86z
	 M168.776,74.141c8.869-7.797,17.468-14.373,25.246-19.801c-15.074,54.703,3.69,117.653,13.035,143.647
	c-15.412,5.834-32.867,8.513-52.066,8.513h-0.007c-27.515,0-52.304-5.855-65.864-9.974
	C103.266,149.153,130.023,108.204,168.776,74.141z M235.142,199.596c25.774,8.65,35.685,18.716,35.685,24.531
	c0,5.896-9.633,15.398-31.15,23.428c-24.15,9.011-56.529,13.974-91.177,13.974s-67.027-4.963-91.177-13.974
	c-21.518-8.029-31.15-17.573-31.15-23.47c0-5.745,10.026-16.391,35.569-25.04c-0.255,0.977-0.523,1.939-0.771,2.924
	c-1.57,6.257,1.727,13.052,7.715,15.447c1.607,0.643,39.893,16.084,86.297,16.084c0.004,0,0.006,0,0.009,0
	c27.827,0,52.825-5.785,74.299-16.524C235.402,213.92,237.842,205.871,235.142,199.596z"/>
<g>
</g>
<g>
</g>
<g>
</g>
<g>
</g>
<g>
</g>
<g>
</g>
<g>
</g>
<g>
</g>
<g>
</g>
<g>
</g>
<g>
</g>
<g>
</g>
<g>
</g>
<g>
</g>
<g>
</g>
</svg>
