<?xml version="1.0" encoding="iso-8859-1"?>
<!-- Generator: Adobe Illustrator 18.0.0, SVG Export Plug-In . SVG Version: 6.00 Build 0)  -->
<!DOCTYPE svg PUBLIC "-//W3C//DTD SVG 1.1//EN" "http://www.w3.org/Graphics/SVG/1.1/DTD/svg11.dtd">
<svg version="1.1" id="Capa_1" xmlns="http://www.w3.org/2000/svg" xmlns:xlink="http://www.w3.org/1999/xlink" x="0px" y="0px"
	 viewBox="0 0 514.893 514.893" style="enable-background:new 0 0 514.893 514.893;" xml:space="preserve">
<g>
	<path d="M299.189,79.158l-15.057,4.991c-47.55,15.757-91.604,40.171-130.213,71.711c-10.596,8.656-20.863,17.751-30.582,27.47
		l-26.163,26.163c-5.976,5.976-4.96,18.068,1.601,33.78c-35.805,36.622-63.422,110.405-50.985,161.96
		c-11.283-3.242-23.698-4.504-36.898-3.443c-6.516,0.525-11.375,6.225-10.852,12.732c0.516,6.508,6.207,11.314,12.731,10.852
		c21.934-1.664,39.98,3.805,52.232,16.072c12.27,12.264,17.822,30.322,16.066,52.227c-0.523,6.516,4.337,12.215,10.844,12.738
		c0.323,0.023,0.647,0.039,0.962,0.039c6.099,0,11.284-4.691,11.776-10.883c1.063-13.293-0.216-25.785-3.496-37.123
		c8.58,2.08,17.6,3.389,27.156,3.389c38.832,0,83.172-16.103,114.919-38.107c7.361-5.1,14.17-10.443,19.923-16.066
		c7.817,4.311,27.565,7.539,35.404,0.072c7.892-7.518,24.554-24.617,24.554-24.617c45.14-45.141,79.103-100.199,99.183-160.796
		l1.277-3.866l18.786-56.662l23.579-71.061c4.709-14.191,1.032-29.825-9.508-40.43c-10.54-10.605-26.151-14.377-40.371-9.755
		l-18.24,5.929L299.189,79.158z M134.487,194.483c16.189-16.189,33.819-30.938,52.588-44.07c0.97-0.176,1.987,0.04,2.695,0.747
		c0.817,0.817,1.101,2.033,0.724,3.126l-9.319,27.503l17.366,23.275c0.694,0.932,0.801,2.172,0.27,3.196
		c-0.524,1.031-1.587,1.68-2.742,1.664l-29.043-0.377l-16.774,23.713c-0.663,0.946-1.81,1.432-2.95,1.248
		c-1.147-0.178-2.087-0.994-2.426-2.095l-8.619-27.734l-9.127-2.842L134.487,194.483z M235.85,399.98
		c-42.168,32.385-121.125,55.189-152.85,23.467c-32.986-32.986-7.024-117.213,27.41-157.838
		c13.216,21.795,33.365,47.172,58.311,72.117c5.145,5.145,10.304,10.014,15.458,14.742c0.97,0.885,1.934,1.787,2.896,2.658
		c4.953,4.467,9.874,8.725,14.741,12.746c0.931,0.777,1.849,1.51,2.779,2.264c1.479,1.193,2.904,2.24,4.368,3.395
		c11.183,8.836,21.918,16.352,31.955,22.428C239.315,397.322,237.582,398.646,235.85,399.98z M305.921,332.265l-12.578,37.1
		l9.065,12.147l-15.896,15.896c-0.254,0.031-0.608,0.061-1.093,0.061c-11.399,0-34.835-11.691-63.031-33.424l6.839-4.838
		l-0.509-39.178c-0.014-1.156,0.632-2.219,1.664-2.742c1.023-0.523,2.265-0.424,3.195,0.27l31.394,23.438l37.098-12.578
		c1.095-0.377,2.311-0.094,3.128,0.725C306.012,329.954,306.297,331.173,305.921,332.265z M355.156,248.733
		c-0.524,1.033-1.585,1.68-2.742,1.664l-39.171-0.5l-22.628,31.993c-0.661,0.939-1.809,1.424-2.95,1.239
		c-1.146-0.177-2.086-0.993-2.426-2.095l-11.638-37.416l-37.406-11.629c-1.102-0.339-1.918-1.278-2.096-2.426
		c-0.184-1.14,0.301-2.287,1.241-2.95l31.993-22.628l-0.509-39.179c-0.014-1.155,0.632-2.218,1.664-2.742
		c1.025-0.523,2.265-0.424,3.197,0.27l31.392,23.436l37.098-12.576c1.095-0.378,2.311-0.093,3.128,0.724
		c0.815,0.815,1.101,2.033,0.724,3.126l-12.578,37.1l23.438,31.4C355.581,246.47,355.68,247.709,355.156,248.733z M423.633,168.127
		l-16.312,49.23c-0.732,2.194-1.611,4.344-2.38,6.53l-4.691-15.095l-23.729-7.371c-1.101-0.339-1.917-1.286-2.095-2.426
		c-0.185-1.141,0.301-2.287,1.24-2.957l20.295-14.355l-0.323-24.846c-0.016-1.156,0.631-2.219,1.663-2.743
		c1.025-0.532,2.265-0.423,3.189,0.27l19.924,14.857L423.633,168.127z M416.64,95.431c-0.523,1.032-1.587,1.678-2.741,1.664
		l-39.171-0.501l-22.628,31.993c-0.662,0.94-1.809,1.426-2.949,1.241c-1.148-0.178-2.087-0.994-2.426-2.096l-11.629-37.413
		l-10.036-3.12l70.193-23.259l21.119,28.303C417.063,93.166,417.171,94.407,416.64,95.431z"/>
	<path d="M514.81,8.444l-0.494,0.161C514.816,8.727,515.022,8.695,514.81,8.444z"/>
</g>
<g>
</g>
<g>
</g>
<g>
</g>
<g>
</g>
<g>
</g>
<g>
</g>
<g>
</g>
<g>
</g>
<g>
</g>
<g>
</g>
<g>
</g>
<g>
</g>
<g>
</g>
<g>
</g>
<g>
</g>
</svg>
