<?xml version="1.0" encoding="iso-8859-1"?>
<!-- Generator: Adobe Illustrator 16.0.0, SVG Export Plug-In . SVG Version: 6.00 Build 0)  -->
<!DOCTYPE svg PUBLIC "-//W3C//DTD SVG 1.1//EN" "http://www.w3.org/Graphics/SVG/1.1/DTD/svg11.dtd">
<svg version="1.1" id="Capa_1" xmlns="http://www.w3.org/2000/svg" xmlns:xlink="http://www.w3.org/1999/xlink" x="0px" y="0px"
	 width="25.938px" height="25.938px" viewBox="0 0 25.938 25.938" style="enable-background:new 0 0 25.938 25.938;"
	 xml:space="preserve">
<g>
	<path d="M25.139,15.14v-1.675c0.209-0.436,0.332-0.887,0.332-1.353c0-2.425-3.002-4.509-7.314-5.455l-0.186-0.93
		c0-0.828-2.238-1.5-5-1.5s-5,0.672-5,1.5l-0.186,0.93C3.471,7.603,0.47,9.686,0.47,12.112c0,0.464,0.122,0.917,0.331,1.352v1.677
		C0.343,15.267,0,15.67,0,16.168c0,0.6,0.486,1.085,1.085,1.085c0.599,0,1.084-0.485,1.084-1.085c0-0.499-0.344-0.901-0.802-1.027
		v-0.807c0.742,0.891,1.915,1.675,3.396,2.295v1.113c-0.458,0.125-0.802,0.528-0.802,1.026c0,0.599,0.486,1.084,1.085,1.084
		c0.599,0,1.084-0.485,1.084-1.084c0-0.499-0.344-0.901-0.802-1.028v-0.889c1.019,0.379,2.162,0.684,3.396,0.897v1.379
		c-0.458,0.127-0.801,0.528-0.801,1.026c0,0.6,0.485,1.086,1.085,1.086c0.599,0,1.084-0.486,1.084-1.086
		c0-0.498-0.344-0.9-0.802-1.026v-1.281c1.077,0.159,2.217,0.246,3.396,0.258v1.494c-0.458,0.127-0.802,0.529-0.802,1.027
		c0,0.599,0.486,1.085,1.085,1.085s1.083-0.486,1.083-1.085c0-0.499-0.344-0.901-0.802-1.028v-1.494
		c1.179-0.013,2.32-0.099,3.396-0.258v1.281c-0.457,0.127-0.801,0.529-0.801,1.027c0,0.599,0.485,1.084,1.084,1.084
		c0.6,0,1.084-0.485,1.084-1.084c0-0.5-0.344-0.901-0.801-1.027v-1.378c1.233-0.214,2.377-0.519,3.396-0.896v0.89
		c-0.458,0.125-0.802,0.528-0.802,1.026c0,0.599,0.486,1.084,1.086,1.084c0.599,0,1.084-0.485,1.084-1.084
		c0-0.499-0.344-0.901-0.801-1.028v-1.111c1.48-0.621,2.653-1.404,3.396-2.294v0.806c-0.458,0.126-0.802,0.529-0.802,1.027
		c0,0.6,0.486,1.085,1.084,1.085c0.6,0,1.084-0.485,1.084-1.085C25.94,15.669,25.598,15.266,25.139,15.14z M12.97,13.727
		c-3.314,0-6-0.896-6-2l0.12-0.601c0.555,0.913,2.976,1.601,5.88,1.601s5.325-0.688,5.879-1.601l0.121,0.601
		C18.971,12.83,16.284,13.727,12.97,13.727z"/>
</g>
<g>
</g>
<g>
</g>
<g>
</g>
<g>
</g>
<g>
</g>
<g>
</g>
<g>
</g>
<g>
</g>
<g>
</g>
<g>
</g>
<g>
</g>
<g>
</g>
<g>
</g>
<g>
</g>
<g>
</g>
</svg>
