<?xml version="1.0" encoding="iso-8859-1"?>
<!-- Generator: Adobe Illustrator 16.0.0, SVG Export Plug-In . SVG Version: 6.00 Build 0)  -->
<!DOCTYPE svg PUBLIC "-//W3C//DTD SVG 1.1//EN" "http://www.w3.org/Graphics/SVG/1.1/DTD/svg11.dtd">
<svg version="1.1" id="Capa_1" xmlns="http://www.w3.org/2000/svg" xmlns:xlink="http://www.w3.org/1999/xlink" x="0px" y="0px"
	 width="225.19px" height="225.19px" viewBox="0 0 225.19 225.19" style="enable-background:new 0 0 225.19 225.19;"
	 xml:space="preserve">
<g>
	<path d="M221.195,175.92c-9.586-4.807-32.121-15.038-61.313-21.271c-5.019-11.49-9.099-23.44-12.447-35.521
		c-3.857-13.91-6.773-28.217-7.441-42.667c-0.524-11.385,0.375-23.122,5.138-33.615c2.133-4.195,4.741-8.018,8.252-11.187
		c3.631-3.279,7.891-5.813,12.407-7.666c9.392-3.847,19.543-4.89,29.597-5.134c-0.193,5.072,2.526,9.906,6.99,12.346
		c4.528,2.478,10.247,2.098,14.409-0.954c4.148-3.04,6.23-8.305,5.287-13.362c-0.928-4.965-4.703-9.097-9.563-10.473
		c-6.084-1.724-12.711,1.15-15.627,6.757c-11.828-5.294-24.369-9.166-37.437-9.261c-13.778-0.102-27.065,4.119-38.436,11.857
		c-11.438,7.788-20.5,18.752-27.533,30.573C86.152,58.659,80.726,72.05,76.533,85.729c-6.895,22.487-10.816,45.887-12.775,69.3
		c-26.373,4.816-56.971,19.555-59.766,20.956c0,0-0.855,0.362-1.773,0.94c-0.057,0.029-2.811,1.514-2.102,3.237
		c0.449,1.094,3.875,4.669,3.875,4.669c4.154,4.44,8.936,8.337,13.906,11.771l-0.021-0.221c6.301,4.382,13.104,8.062,20.117,11.117
		c18.191,7.93,37.975,11.802,57.705,13.159c23.371,1.607,47.348,0.231,70.066-5.727c14.686-3.852,28.996-9.741,41.524-18.396
		c4.974-3.436,9.755-7.33,13.906-11.771c0,0,3.41-3.582,3.877-4.669C225.995,177.947,221.195,175.92,221.195,175.92z
		 M130.889,149.415l-14.394,0.17l0.438,36.895c0.014,1.062-0.84,1.935-1.898,1.945l-11.47,0.137
		c-1.061,0.015-1.932-0.84-1.945-1.897l-0.436-36.896l-14.393,0.172c-1.059,0.013-1.932-0.84-1.943-1.899l-0.137-11.471
		c-0.012-1.062,0.84-1.933,1.9-1.945l14.391-0.17l-0.145-12.183c-0.014-1.059,0.838-1.932,1.898-1.942l11.471-0.138
		c1.059-0.012,1.932,0.841,1.943,1.898l0.145,12.182l14.393-0.17c1.06-0.014,1.933,0.84,1.945,1.898l0.135,11.473
		C132.799,148.531,131.947,149.404,130.889,149.415z"/>
</g>
<g>
</g>
<g>
</g>
<g>
</g>
<g>
</g>
<g>
</g>
<g>
</g>
<g>
</g>
<g>
</g>
<g>
</g>
<g>
</g>
<g>
</g>
<g>
</g>
<g>
</g>
<g>
</g>
<g>
</g>
</svg>
