<?xml version="1.0" encoding="iso-8859-1"?>
<!-- Generator: Adobe Illustrator 18.1.1, SVG Export Plug-In . SVG Version: 6.00 Build 0)  -->
<svg version="1.1" id="Capa_1" xmlns="http://www.w3.org/2000/svg" xmlns:xlink="http://www.w3.org/1999/xlink" x="0px" y="0px"
	 viewBox="0 0 284.001 284.001" style="enable-background:new 0 0 284.001 284.001;" xml:space="preserve">
<g>
	<path style="fill:#030104;" d="M91.191,191.496c5.547-16.941,14.733-37.033,27.422-53.588
		c40.045-52.273,70.007-41.916,138.833-125.14c-21.5,78.853-30.634,90.422-58.047,129.922c3.488,14.556,7.771,34.476,10.547,49.771
		L91.191,191.496L91.191,191.496z"/>
	<path style="fill:#030104;" d="M97.863,199.118l98.911,2.092c53.262-16.097,83.719-19.002,86.642,2.124
		c3.21,23.199-6.002,35.413-47.278,53.969c-36.266,16.302-73.415,15.987-119.987,10.675C42.008,259.52-2.922,245,0.148,210.304
		C3.22,175.603,49.363,185.037,97.863,199.118L97.863,199.118z"/>
</g>
<g>
</g>
<g>
</g>
<g>
</g>
<g>
</g>
<g>
</g>
<g>
</g>
<g>
</g>
<g>
</g>
<g>
</g>
<g>
</g>
<g>
</g>
<g>
</g>
<g>
</g>
<g>
</g>
<g>
</g>
</svg>
