<?xml version="1.0" encoding="iso-8859-1"?>
<!-- Generator: Adobe Illustrator 18.1.1, SVG Export Plug-In . SVG Version: 6.00 Build 0)  -->
<svg version="1.1" id="Capa_1" xmlns="http://www.w3.org/2000/svg" xmlns:xlink="http://www.w3.org/1999/xlink" x="0px" y="0px"
	 viewBox="0 0 280 280" style="enable-background:new 0 0 280 280;" xml:space="preserve">
<g>
	<path style="fill:#030104;" d="M225.658,198.459c11.583,4.119,17.379,8.637,17.379,13.508c0,7.32-11.879,13.607-35.643,18.857
		c-23.757,5.248-52.381,7.887-85.872,7.887c-33.5,0-62.134-2.639-85.884-7.887C11.875,225.574,0,219.287,0,211.967
		c0-5.25,6.716-10.088,20.137-14.498c11.271-3.699,25.452-6.57,42.547-8.621c21.414,4.832,44.56,7.473,68.708,7.473
		c21.096,0,41.427-2.02,60.504-5.752C205.459,192.643,216.713,195.272,225.658,198.459L225.658,198.459z"/>
	<path style="fill:#030104;" d="M73.133,184.59l1.022-10.619l-7.09-11.823l7.09-14.636l-6.286-34.179
		c14.461-36.77,27.314-43.689,40.146-59.271c5.308-6.567,10.179-10.787,14.606-12.667c9.448-1.31,37.41,9.47,83.895,32.364
		c44.711,21.96,69.202,35.748,73.484,41.383l-94.957,5.621l-4.42,14.93h-16.387l4.646,11.82l9.787,38.916
		c-15.156,2.268-30.982,3.475-47.278,3.475C111.121,189.902,91.56,188.043,73.133,184.59L73.133,184.59z"/>
</g>
<g>
</g>
<g>
</g>
<g>
</g>
<g>
</g>
<g>
</g>
<g>
</g>
<g>
</g>
<g>
</g>
<g>
</g>
<g>
</g>
<g>
</g>
<g>
</g>
<g>
</g>
<g>
</g>
<g>
</g>
</svg>
